<svg xmlns="http://www.w3.org/2000/svg" width="1201" height="45" viewBox="0 0 1201 45"><defs><style>.a{fill:#b80934;}.b,.g{fill:none;}.b{stroke:#ff6188;}.c,.d,.e{fill:#ff6188;}.c,.d{font-size:15px;}.c{font-family:NunitoSans-Bold, Nunito Sans;font-weight:700;}.d{font-family:NunitoSans-Regular, Nunito Sans;}.e{font-size:17px;font-family:FontAwesome5Free-Solid, "Font Awesome 5 Free";}.f{stroke:none;}</style></defs><g transform="translate(-411 -116)"><g transform="translate(411.004 118)"><g transform="translate(48.7 6.402)"><path class="a" d="M56.309,9.613h2.4v8.243h-9.8V9.613h2.432v-2.1h-9.9v2.1h2.432V29.006H41.443v2.1h9.9v-2.1H48.909V20.154h9.8v8.852H56.275v2.1h9.9v-2.1H63.741V9.613h2.432v-2.1H56.309Z" transform="translate(-41.443 -5.086)"/><path class="a" d="M79.954,18.112c0-3.717-2.331-5.879-7.061-5.879-4.831,0-7.4,2.128-7.4,4.257a2.4,2.4,0,0,0,4.8.1A1.945,1.945,0,0,0,69.246,14.8v-.169a5.73,5.73,0,0,1,2.263-.371c2.6,0,3.683,1.42,3.683,4.156v2.061H72.759c-5.371,0-7.94,1.791-7.94,5.2,0,3.142,1.689,5,5.474,5,3.176,0,4.425-1.555,5.1-3.041h.135v.068c0,1.689.98,2.973,3.311,2.973a6.929,6.929,0,0,0,3.277-.71V28.18H79.955V18.112ZM75.19,25.173c0,1.96-1.25,2.7-3.007,2.7-1.588,0-2.6-.71-2.6-2.2V25.1c0-1.757,1.115-2.737,3.683-2.737H75.19v2.8Z" transform="translate(-37.35 -4.26)"/><path class="a" d="M90.915,27.605c-2.7,0-4.324-1.757-4.324-4.865V19.429c0-3.209,1.791-5.169,4.663-5.169a6.226,6.226,0,0,1,2.23.338v.169A2.537,2.537,0,0,0,92,17.065,2.287,2.287,0,0,0,94.565,19.4a2.46,2.46,0,0,0,2.6-2.7c0-2.568-2.4-4.459-6.486-4.459-5.236,0-9.156,3.344-9.156,9.189,0,5.3,3.041,9.257,8.683,9.257a7.4,7.4,0,0,0,7.264-5l-1.757-1.047A4.856,4.856,0,0,1,90.915,27.605Z" transform="translate(-34.425 -4.26)"/><path class="a" d="M110.407,20.01l4.155-4.088h2.5v-2.1h-7.872v2.1h2.229l-4.155,4.257-2.2,2.533h-.2V5.448L97.941,6.8V8.59l2.162.439V29.368H97.941v2.1h8.987v-2.1h-2.061V25.314l2.364-2.432,3.784,6.486h-1.723v2.1h8.649v-2.1h-1.723Z" transform="translate(-31.551 -5.448)"/><path class="a" d="M132.455,18.112c0-3.717-2.331-5.879-7.061-5.879-4.831,0-7.4,2.128-7.4,4.257a2.4,2.4,0,0,0,4.8.1,1.945,1.945,0,0,0-1.047-1.791v-.169a5.73,5.73,0,0,1,2.263-.371c2.6,0,3.683,1.42,3.683,4.156v2.061H125.26c-5.372,0-7.94,1.791-7.94,5.2,0,3.142,1.689,5,5.474,5,3.176,0,4.425-1.555,5.1-3.041h.135v.068c0,1.689.98,2.973,3.311,2.973a6.929,6.929,0,0,0,3.277-.71V28.18h-2.162V18.112Zm-4.764,7.061c0,1.96-1.25,2.7-3.007,2.7-1.588,0-2.6-.71-2.6-2.2V25.1c0-1.757,1.115-2.737,3.683-2.737h1.926v2.8Z" transform="translate(-28.158 -4.26)"/><path class="a" d="M150.6,5.448,143.671,6.8V8.59l2.162.439V16.4h-.169a4.894,4.894,0,0,0-4.865-2.973c-4.425,0-7.264,3.582-7.264,9.223s2.838,9.223,7.264,9.223a4.915,4.915,0,0,0,4.865-3.007h.169v3.007l6.926-1.351V28.726l-2.162-.439ZM145.833,25.82A3.248,3.248,0,0,1,142.354,29c-2.2,0-3.75-1.555-3.75-4.257V20.55c0-2.7,1.555-4.257,3.75-4.257a3.248,3.248,0,0,1,3.479,3.176Z" transform="translate(-25.319 -5.448)"/><path class="a" d="M160.292,12.233c-5,0-8.412,3.548-8.412,9.189,0,5.405,3.142,9.257,8.683,9.257a7.584,7.584,0,0,0,7.5-4.9l-1.723-1.047a4.877,4.877,0,0,1-4.8,2.872c-2.771,0-4.595-1.723-4.595-4.865V21.49h11.521V20.409C168.468,15.443,165.325,12.233,160.292,12.233Zm3.276,7.23h-6.622V18.99c0-3.175,1.216-4.595,3.311-4.595s3.311,1.42,3.311,4.595v.474Z" transform="translate(-22.107 -4.26)"/><path class="a" d="M197.69,18.754c0-4.358-1.588-6.521-5.879-6.521a5.526,5.526,0,0,0-5.371,3.344H186.3c-.676-2.229-2.4-3.344-5.439-3.344a4.955,4.955,0,0,0-5,3.277H175.7V12.233l-6.825,1.351v1.791l2.162.439V28.18h-2.162v2.1h8.886v-2.1H175.8V18.112c0-1.892,1.588-2.8,3.277-2.8,2.027,0,2.906,1.115,2.906,3.649V28.18h-1.96v2.1H188.7v-2.1h-1.96V18.112c0-1.892,1.622-2.8,3.311-2.8,1.993,0,2.872,1.115,2.872,3.649V28.18h-1.96v2.1h8.886v-2.1H197.69V18.754Z" transform="translate(-19.132 -4.26)"/><path class="a" d="M209.25,12.578v2.1h2.027l-3.919,10.744h-.169L203.27,14.673H205.3v-2.1h-8.852v2.1h1.689l6.757,16.284-.439,1.182c-.845,2.229-1.993,3.548-3.108,3.548a1.9,1.9,0,0,1-.541-.068l-.067-.169A2.142,2.142,0,0,0,201.31,34a2.4,2.4,0,0,0-4.8,0c0,1.993,1.588,3.378,4.122,3.378,3.378,0,4.933-2.636,5.946-5.068l7.331-17.636H215.6v-2.1H209.25Z" transform="translate(-14.304 -4.2)"/></g><g transform="translate(-0.003)"><g transform="translate(3.313)"><path class="a" d="M17.017,2.4a24.483,24.483,0,0,1,5.741.682,24.115,24.115,0,0,1,6.063,2.367V16.906a17.93,17.93,0,0,1-3.541,10.749,18.2,18.2,0,0,1-3.972,3.924,17.983,17.983,0,0,1-4.293,2.29,18.092,18.092,0,0,1-11.8-16.962V5.445a24.16,24.16,0,0,1,6.063-2.367A24.484,24.484,0,0,1,17.017,2.4m0-2.4a26.676,26.676,0,0,0-14.2,4.079V16.907a20.487,20.487,0,0,0,14.2,19.5,20.485,20.485,0,0,0,14.2-19.5V4.079A26.683,26.683,0,0,0,17.017,0Z" transform="translate(-2.816)"/></g><g transform="translate(8.069 11.09)"><path class="a" d="M10.763,21.071l-3.9-5.817,3.9-5.817,1.991,1.335-3,4.482,3,4.482Z" transform="translate(-6.863 -9.438)"/><g transform="translate(13)"><path class="a" d="M19.917,21.071l-1.991-1.335,3.006-4.482-3.006-4.482,1.991-1.335,3.9,5.817Z" transform="translate(-17.926 -9.438)"/></g></g><g transform="translate(14.987 9.439)"><rect class="a" width="2.396" height="14.747" transform="translate(2.7 0) rotate(10.55)"/></g><g transform="translate(3.313)"><path class="a" d="M17.017,2.4a24.483,24.483,0,0,1,5.741.682,24.115,24.115,0,0,1,6.063,2.367V16.906a17.93,17.93,0,0,1-3.541,10.749,18.2,18.2,0,0,1-3.972,3.924,17.983,17.983,0,0,1-4.293,2.29,18.092,18.092,0,0,1-11.8-16.962V5.445a24.16,24.16,0,0,1,6.063-2.367A24.484,24.484,0,0,1,17.017,2.4m0-2.4a26.676,26.676,0,0,0-14.2,4.079V16.907a20.487,20.487,0,0,0,14.2,19.5,20.485,20.485,0,0,0,14.2-19.5V4.079A26.683,26.683,0,0,0,17.017,0Z" transform="translate(-2.816)"/></g><g transform="translate(0 7.718)"><path class="a" d="M1.019,6.568l.027,4.912.014,2.456,0,1.228c0,.409,0,.817.012,1.226a23.742,23.742,0,0,0,.19,2.432,23.11,23.11,0,0,0,.439,2.4,23.522,23.522,0,0,0,1.608,4.6A23.662,23.662,0,0,0,5.829,30a23.54,23.54,0,0,0,1.564,1.871,23.8,23.8,0,0,0,3.657,3.217,23.465,23.465,0,0,0,2.055,1.31,23.276,23.276,0,0,0,2.179,1.093,24.223,24.223,0,0,0,2.28.864h-.106a24.215,24.215,0,0,0,2.28-.863,23.766,23.766,0,0,0,4.234-2.4,23.959,23.959,0,0,0,1.911-1.515,24.119,24.119,0,0,0,1.746-1.7A23.539,23.539,0,0,0,29.192,30a23.88,23.88,0,0,0,1.365-2.021,24.058,24.058,0,0,0,1.15-2.152,23.442,23.442,0,0,0,1.606-4.6,23.709,23.709,0,0,0,.63-4.834c.012-.407.011-.814.012-1.224l0-1.228.014-2.456L34,6.569h.173c.054.409.1.819.146,1.228s.094.819.13,1.228l.119,1.228c.04.409.08.819.11,1.228l.2,2.456c.035.409.058.819.083,1.228l.038.615c.006.213.016.425.018.637a24.768,24.768,0,0,1-.089,2.556c-.019.213-.039.427-.063.638s-.051.425-.081.637c-.063.424-.135.846-.221,1.267a23.567,23.567,0,0,1-.639,2.5,24.609,24.609,0,0,1-.91,2.421,23.3,23.3,0,0,1-1.163,2.316,25.36,25.36,0,0,1-1.405,2.183,23.886,23.886,0,0,1-1.633,2.025A25.7,25.7,0,0,1,26.971,34.8a25.92,25.92,0,0,1-2.027,1.642,25.1,25.1,0,0,1-2.187,1.427,25.361,25.361,0,0,1-2.331,1.182,25.878,25.878,0,0,1-2.442.937l-.474.155-.477-.155a25.282,25.282,0,0,1-4.773-2.118,24.4,24.4,0,0,1-2.188-1.425,25.887,25.887,0,0,1-2.028-1.642,25.235,25.235,0,0,1-1.837-1.848,24.565,24.565,0,0,1-1.635-2.025,25.378,25.378,0,0,1-1.405-2.184A23.57,23.57,0,0,1,2,26.433a24.6,24.6,0,0,1-.908-2.421,23.307,23.307,0,0,1-.639-2.5A22.194,22.194,0,0,1,.09,18.971c-.021-.213-.032-.427-.048-.639s-.024-.427-.029-.639S0,17.266,0,17.053s0-.429,0-.645l0-.161,0-.154.011-.307.038-.623c.027-.409.047-.819.083-1.228l.2-2.456.051-.613.06-.613L.566,9.025C.607,8.615.654,8.206.7,7.8s.092-.819.147-1.228Z" transform="translate(0.003 -6.568)"/></g><g transform="translate(8.069 11.09)"><path class="a" d="M10.763,21.071l-3.9-5.817,3.9-5.817,1.991,1.335-3,4.482,3,4.482Z" transform="translate(-6.863 -9.438)"/><g transform="translate(13)"><path class="a" d="M19.917,21.071l-1.991-1.335,3.006-4.482-3.006-4.482,1.991-1.335,3.9,5.817Z" transform="translate(-17.926 -9.438)"/></g></g><g transform="translate(14.987 9.439)"><rect class="a" width="2.396" height="14.747" transform="translate(2.7 0) rotate(10.55)"/></g></g></g><g transform="translate(226)"><g transform="translate(-233)"><g class="b" transform="translate(1340 116)"><rect class="f" width="121" height="45" rx="22.5"/><rect class="g" x="0.5" y="0.5" width="120" height="44" rx="22"/></g><text class="c" transform="translate(1365 144)"><tspan x="0" y="0">Enroll Now</tspan></text></g></g><text class="d" transform="translate(1078 143)"><tspan x="0" y="0">About</tspan></text><text class="d" transform="translate(1158 143)"><tspan x="0" y="0">Courses</tspan></text><text class="d" transform="translate(1251 143)"><tspan x="0" y="0">Tracks</tspan></text><g transform="translate(226)"><text class="e" transform="translate(1282.53 144.098)"><tspan x="0" y="0"></tspan></text><text class="d" transform="translate(1267 143.451)"><tspan x="0" y="0">0</tspan></text><g transform="translate(-95)"><g class="b" transform="translate(1340 116)"><rect class="f" width="78.93" height="45" rx="22.5"/><rect class="g" x="0.5" y="0.5" width="77.93" height="44" rx="22"/></g></g></g><g class="b" transform="translate(1567 116)"><circle class="f" cx="22.5" cy="22.5" r="22.5"/><circle class="g" cx="22.5" cy="22.5" r="22"/></g><text class="e" transform="translate(1580.529 144.098)"><tspan x="0" y="0"></tspan></text></g></svg>